<?xml version="1.0" encoding="UTF-8" standalone="no"?>
<svg width="220px" height="83px" viewBox="0 0 220 83" version="1.1" xmlns="http://www.w3.org/2000/svg" xmlns:xlink="http://www.w3.org/1999/xlink">
    <defs></defs>
    <g id="Page-1" stroke="none" stroke-width="1" fill="none" fill-rule="evenodd">
        <g id="aerohive_logo">
            <g id="Group" transform="translate(99.000000, 69.000000)" fill="#FFFFFF">
                <path d="M0.9,1.3 L8.4,10 L8.4,1.3 L10,1.3 L10,13.6 L9.4,13.6 L1.9,5 L1.9,13.6 L0.3,13.6 L0.3,1.3 L0.9,1.3 L0.9,1.3 Z" id="Shape"></path>
                <path d="M14,13.5 L14,1.5 L14,1.3 L21.1,1.3 L21.1,2.9 L15.5,2.9 L15.5,6.2 L21,6.2 L21,7.8 L15.5,7.8 L15.5,12 L21,12 L21,13.6 L14,13.6 L14,13.5 L14,13.5 Z" id="Shape"></path>
                <path d="M23.9,2.9 L23.9,1.3 L30.7,1.3 L30.7,2.9 L28.1,2.9 L28.1,13.6 L26.5,13.6 L26.5,13.6 L26.5,2.9 L23.9,2.9 L23.9,2.9 Z" id="Shape"></path>
                <path d="M33.5,1.5 L33.4,1.2 L35,1.2 L37.3,9.3 L40.5,1.2 L40.6,1.2 L41,1.2 L44.2,9.3 L46.5,1.2 L48.1,1.2 L44.6,13.5 L44.4,13.5 L44.4,13.5 L44,13.5 L40.6,4.9 L37.2,13.5 L37.1,13.5 L36.7,13.5 L33.5,1.5" id="Shape"></path>
                <path d="M56.6,1 C58.4,1 60,1.6 61.2,2.9 L61.2,2.9 C62.4,4.1 63.1,5.7 63.1,7.5 L63.1,7.5 C63.1,9.3 62.5,10.8 61.2,12.1 L61.2,12.1 C60,13.3 58.4,14 56.7,14 L56.7,14 L56.7,14 L56.7,14 C54.9,14 53.4,13.4 52.1,12.1 L52.1,12.1 C50.9,10.9 50.2,9.3 50.2,7.6 L50.2,7.6 C50.2,6.4 50.5,5.3 51,4.3 L51,4.3 C51.6,3.3 52.3,2.5 53.3,1.9 L53.3,1.9 C54.4,1.3 55.5,1 56.6,1 L56.6,1 M56.6,2.5 C55.8,2.5 55,2.7 54.2,3.2 L54.2,3.2 C53.4,3.6 52.9,4.2 52.4,5 L52.4,5 C52,5.7 51.8,6.6 51.8,7.5 L51.8,7.5 C51.8,8.9 52.3,10 53.2,10.9 L53.2,10.9 C54.1,11.8 55.2,12.3 56.6,12.3 L56.6,12.3 C57.5,12.3 58.3,12.1 59,11.7 L59,11.7 C59.7,11.3 60.3,10.7 60.7,9.9 L60.7,9.9 C61.1,9.2 61.3,8.3 61.3,7.4 L61.3,7.4 C61.3,6.5 61.1,5.7 60.7,4.9 L60.7,4.9 C60.3,4.2 59.7,3.6 58.9,3.1 L58.9,3.1 C58.3,2.8 57.5,2.5 56.6,2.5 L56.6,2.5" id="Shape"></path>
                <path d="M72.3,13.5 L68.1,8 L67.7,8 L67.7,13.5 L66.1,13.5 L66.1,1.5 L66.1,1.3 L68.6,1.3 C69.9,1.3 70.8,1.4 71.3,1.5 L71.3,1.5 C72,1.7 72.7,2 73.1,2.6 L73.1,2.6 C73.6,3.2 73.8,3.9 73.8,4.7 L73.8,4.7 C73.8,5.4 73.6,6 73.3,6.5 L73.3,6.5 C73,7 72.5,7.4 71.9,7.7 L71.9,7.7 C71.4,7.9 70.7,8.1 69.9,8.1 L69.9,8.1 L74.1,13.6 L72.3,13.6 L72.3,13.5 L72.3,13.5 Z M67.7,6.5 L69.5,6.5 C70.3,6.5 70.8,6.4 71.2,6.3 L71.2,6.3 C71.5,6.2 71.8,6 72,5.7 L72,5.7 C72.2,5.4 72.3,5.1 72.3,4.7 L72.3,4.7 C72.3,4.3 72.2,4 72,3.7 L72,3.7 C71.8,3.4 71.6,3.2 71.2,3.1 L71.2,3.1 C70.9,3 70.3,2.9 69.5,2.9 L69.5,2.9 L67.6,2.9 L67.6,6.5 L67.7,6.5 L67.7,6.5 Z" id="Shape"></path>
                <path d="M84.8,13.5 L79.9,8.3 L79.9,13.5 L78.3,13.5 L78.3,1.5 L78.3,1.3 L79.9,1.3 L79.9,5.5 L84.3,1.3 L86.5,1.3 L80.6,6.8 L86.9,13.5 L84.8,13.5 L84.8,13.5 L84.8,13.5 Z" id="Shape"></path>
                <path d="M89.1,11.2 L89,11 L90.3,10.2 L90.4,10.4 C91.1,11.7 91.8,12.3 92.7,12.3 L92.7,12.3 C93.1,12.3 93.4,12.2 93.7,12 L93.7,12 C94,11.8 94.3,11.6 94.4,11.3 L94.4,11.3 C94.6,11 94.6,10.7 94.6,10.4 L94.6,10.4 C94.6,10 94.5,9.7 94.2,9.3 L94.2,9.3 C93.9,8.8 93.2,8.2 92.2,7.4 L92.2,7.4 C91.2,6.6 90.6,6.1 90.3,5.7 L90.3,5.7 C89.9,5.1 89.6,4.5 89.6,3.8 L89.6,3.8 C89.6,3.3 89.7,2.7 90,2.3 L90,2.3 C90.3,1.8 90.6,1.5 91.1,1.2 L91.1,1.2 C91.6,0.9 92.1,0.8 92.6,0.8 L92.6,0.8 C93.2,0.8 93.7,1 94.3,1.2 L94.3,1.2 C94.8,1.5 95.3,2 95.9,2.8 L95.9,2.8 L96,3 L94.7,4 L94.6,3.8 C94.2,3.2 93.8,2.8 93.5,2.7 L93.5,2.7 C93.2,2.5 92.9,2.4 92.6,2.4 L92.6,2.4 C92.2,2.4 91.8,2.5 91.6,2.8 L91.6,2.8 C91.3,3.1 91.2,3.4 91.2,3.7 L91.2,3.7 C91.2,3.9 91.2,4.1 91.3,4.4 L91.3,4.4 C91.4,4.6 91.6,4.9 91.8,5.1 L91.8,5.1 C91.9,5.2 92.4,5.6 93.3,6.3 L93.3,6.3 C94.3,7.1 95,7.7 95.4,8.4 L95.4,8.4 C95.8,9 96,9.7 96,10.3 L96,10.3 C96,11.2 95.6,12 95,12.7 L95,12.7 C94.3,13.4 93.5,13.7 92.5,13.7 L92.5,13.7 L92.5,13.7 L92.5,13.7 C91.7,13.7 91.1,13.5 90.4,13.1 L90.4,13.1 C90.1,12.8 89.6,12.2 89.1,11.2 L89.1,11.2" id="Shape"></path>
            </g>
            <g id="Group">
                <path d="M14.9,31.8 L28.9,62 L25.7,62 L21,52.1 L8,52.1 L3.3,62 L0,62 L14.2,31.8 L14.9,31.8 L14.9,31.8 Z M14.5,38.3 L9.4,49.2 L19.6,49.2 L14.5,38.3 L14.5,38.3 Z" id="Shape" fill="#000000"></path>
                <path d="M51.5,54.6 L53.9,55.9 C53.1,57.5 52.2,58.7 51.2,59.7 C50.2,60.7 49,61.4 47.7,61.9 C46.4,62.4 44.9,62.6 43.3,62.6 C39.7,62.6 36.9,61.4 34.8,59 C32.8,56.6 31.7,53.9 31.7,50.9 C31.7,48.1 32.6,45.5 34.3,43.3 C36.5,40.5 39.4,39.1 43.1,39.1 C46.9,39.1 49.9,40.5 52.2,43.4 C53.8,45.4 54.6,48 54.6,51 L34.7,51 C34.8,53.6 35.6,55.7 37.2,57.4 C38.8,59.1 40.8,59.9 43.1,59.9 C44.2,59.9 45.3,59.7 46.4,59.3 C47.5,58.9 48.4,58.4 49.1,57.7 C49.8,57.1 50.6,56.1 51.5,54.6 L51.5,54.6 Z M51.5,48.6 C51.1,47.1 50.6,45.8 49.8,44.9 C49.1,44 48.1,43.2 46.9,42.7 C45.7,42.1 44.4,41.9 43.1,41.9 C40.9,41.9 39.1,42.6 37.5,44 C36.4,45 35.5,46.6 34.9,48.6 L51.5,48.6 L51.5,48.6 Z" id="Shape" fill="#000000"></path>
                <path d="M58.9,39.7 L61.8,39.7 L61.8,43 C62.7,41.7 63.6,40.8 64.5,40.1 C65.5,39.5 66.5,39.1 67.5,39.1 C68.3,39.1 69.1,39.4 70,39.9 L68.5,42.3 C67.9,42 67.4,41.9 67,41.9 C66,41.9 65.1,42.3 64.2,43.1 C63.3,43.9 62.6,45.1 62.2,46.8 C61.8,48.1 61.7,50.6 61.7,54.5 L61.7,62 L58.8,62 L58.8,39.7 L58.9,39.7 Z" id="Shape" fill="#000000"></path>
                <path d="M82.8,39.1 C86.2,39.1 89,40.3 91.3,42.8 C93.3,45.1 94.4,47.8 94.4,50.9 C94.4,54 93.3,56.7 91.2,59.1 C89,61.4 86.3,62.6 82.9,62.6 C79.5,62.6 76.7,61.4 74.6,59.1 C72.4,56.8 71.4,54 71.4,50.9 C71.4,47.8 72.4,45.1 74.5,42.9 C76.6,40.4 79.4,39.1 82.8,39.1 L82.8,39.1 Z M82.8,41.9 C80.4,41.9 78.4,42.8 76.7,44.5 C75,46.3 74.1,48.4 74.1,50.9 C74.1,52.5 74.5,54 75.3,55.4 C76.1,56.8 77.1,57.9 78.4,58.6 C79.7,59.4 81.2,59.7 82.8,59.7 C84.4,59.7 85.8,59.3 87.2,58.6 C88.5,57.8 89.6,56.8 90.3,55.4 C91.1,54 91.5,52.5 91.5,50.9 C91.5,48.4 90.6,46.3 88.9,44.5 C87.2,42.8 85.2,41.9 82.8,41.9 L82.8,41.9 Z" id="Shape" fill="#000000"></path>
                <path d="M99.6,31.1 L102.5,31.1 L102.5,43.7 C103.7,42.2 104.9,41 106.3,40.3 C107.7,39.5 109.2,39.2 110.8,39.2 C112.5,39.2 113.9,39.6 115.2,40.5 C116.5,41.3 117.4,42.5 118,43.9 C118.6,45.3 118.9,47.6 118.9,50.6 L118.9,62 L116,62 L116,51.4 C116,48.8 115.9,47.1 115.7,46.3 C115.3,44.8 114.7,43.7 113.8,43 C112.9,42.3 111.7,41.9 110.1,41.9 C108.4,41.9 106.8,42.5 105.5,43.6 C104.1,44.7 103.2,46.2 102.8,47.9 C102.5,49 102.4,51 102.4,54 L102.4,62 L99.5,62 L99.5,31.1 L99.6,31.1 Z" id="Shape" fill="#000000"></path>
                <path d="M126.1,30.5 C126.7,30.5 127.3,30.7 127.8,31.2 C128.3,31.7 128.5,32.2 128.5,32.9 C128.5,33.5 128.3,34.1 127.8,34.6 C127.3,35.1 126.8,35.3 126.1,35.3 C125.5,35.3 124.9,35.1 124.5,34.6 C124,34.1 123.8,33.6 123.8,32.9 C123.8,32.2 124,31.7 124.5,31.2 C124.9,30.7 125.4,30.5 126.1,30.5 L126.1,30.5 Z M124.7,39.7 L127.6,39.7 L127.6,62 L124.7,62 L124.7,39.7 L124.7,39.7 Z" id="Shape" fill="#000000"></path>
                <path d="M131.7,39.7 L134.7,39.7 L142.1,56 L149.4,39.7 L152.5,39.7 L142.5,62 L142,62 L131.7,39.7 L131.7,39.7 Z" id="Shape" fill="#000000"></path>
                <path d="M175.2,54.6 L177.6,55.9 C176.8,57.5 175.9,58.7 174.9,59.7 C173.9,60.7 172.7,61.4 171.4,61.9 C170.1,62.4 168.6,62.6 167,62.6 C163.4,62.6 160.6,61.4 158.5,59 C156.5,56.6 155.4,53.9 155.4,50.9 C155.4,48.1 156.3,45.5 158,43.3 C160.2,40.5 163.1,39.1 166.8,39.1 C170.6,39.1 173.6,40.5 175.9,43.4 C177.5,45.4 178.3,48 178.3,51 L158.4,51 C158.5,53.6 159.3,55.7 160.9,57.4 C162.5,59.1 164.5,59.9 166.8,59.9 C167.9,59.9 169,59.7 170.1,59.3 C171.2,58.9 172.1,58.4 172.8,57.7 C173.5,57.1 174.3,56.1 175.2,54.6 L175.2,54.6 Z M175.2,48.6 C174.8,47.1 174.3,45.8 173.5,44.9 C172.8,44 171.8,43.2 170.6,42.7 C169.4,42.1 168.1,41.9 166.8,41.9 C164.6,41.9 162.8,42.6 161.2,44 C160.1,45 159.2,46.6 158.6,48.6 L175.2,48.6 L175.2,48.6 Z" id="Shape" fill="#000000"></path>
                <g transform="translate(177.000000, 0.000000)" id="Shape" fill="#FFC20E">
                    <path d="M6.5,42.1 L0.8,32.3 L6.5,22.4 L17.9,22.4 L23.6,32.3 L17.9,42.1 L6.5,42.1 Z"></path>
                    <path d="M6.5,19.7 L0.8,9.9 L6.5,0 L17.9,0 L23.6,9.9 L17.9,19.7 L6.5,19.7 Z"></path>
                    <path d="M25.9,30.7 L20.2,20.9 L25.9,11 L37.3,11 L43,20.9 L37.3,30.7 L25.9,30.7 Z"></path>
                </g>
                <path d="M183.1,59.9 C183.1,60.2 183,60.5 182.9,60.8 C182.7,61.1 182.5,61.3 182.2,61.5 C181.9,61.7 181.6,61.7 181.3,61.7 C181,61.7 180.7,61.6 180.4,61.5 C180.1,61.3 179.9,61.1 179.7,60.8 C179.5,60.5 179.5,60.2 179.5,59.9 C179.5,59.6 179.6,59.3 179.7,59 C179.9,58.7 180.1,58.5 180.4,58.3 C180.7,58.1 181,58.1 181.3,58.1 C181.6,58.1 181.9,58.2 182.2,58.3 C182.5,58.5 182.7,58.7 182.9,59 C183.1,59.3 183.1,59.6 183.1,59.9 L183.1,59.9 Z M182.8,59.9 C182.8,59.5 182.7,59.1 182.4,58.9 C182.1,58.6 181.8,58.5 181.4,58.5 C181,58.5 180.7,58.6 180.4,58.9 C180.1,59.2 180,59.5 180,59.9 C180,60.2 180.1,60.4 180.2,60.6 C180.3,60.8 180.5,61 180.7,61.1 C180.9,61.2 181.2,61.3 181.4,61.3 C181.6,61.3 181.9,61.2 182.1,61.1 C182.3,61 182.5,60.8 182.6,60.6 C182.7,60.4 182.8,60.2 182.8,59.9 L182.8,59.9 Z M180.5,58.9 L181.4,58.9 C181.6,58.9 181.7,58.9 181.8,59 C181.9,59 182,59.1 182,59.2 C182.1,59.3 182.1,59.4 182.1,59.5 L182.1,59.8 C182.1,59.9 182,59.9 181.9,60 C182,60 182,60.1 182.1,60.1 C182.1,60.2 182.1,60.2 182.2,60.4 L182.2,60.8 C182.2,60.8 182.2,60.9 182.3,60.9 L181.8,60.9 L181.8,60.8 L181.8,60.6 L181.8,60.3 C181.8,60.3 181.8,60.2 181.7,60.2 L181.5,60.2 L181,60.2 L181,61 L180.6,61 L180.6,58.9 L180.5,58.9 Z M181,59.3 L181,59.8 L181.4,59.8 C181.5,59.8 181.6,59.8 181.7,59.7 C181.7,59.7 181.8,59.6 181.8,59.5 C181.8,59.4 181.8,59.4 181.7,59.3 C181.7,59.3 181.6,59.2 181.4,59.2 L181,59.2 L181,59.3 Z" id="Shape" fill="#000000"></path>
            </g>
        </g>
    </g>
</svg>