<?xml version="1.0" encoding="UTF-8" standalone="no"?>
<svg width="258px" height="135px" viewBox="0 0 258 135" version="1.1" xmlns="http://www.w3.org/2000/svg" xmlns:xlink="http://www.w3.org/1999/xlink">
    <defs></defs>
    <g id="Page-1" stroke="none" stroke-width="1" fill="none" fill-rule="evenodd">
        <g id="Icon" fill="#4A4A4A">
            <path d="M11.643431,57.0074074 L58.163875,88.0098765 L11.643431,119.016049 L11.643431,57.0074074 L11.643431,57.0074074 L11.643431,57.0074074 Z M76.830284,88.0098765 L123.345793,57.0074074 L123.345793,119.016049 L76.830284,88.0098765 L76.830284,88.0098765 L76.830284,88.0098765 Z M134.04721,57.0074074 L180.578757,88.0098765 L134.04721,119.016049 L134.04721,57.0074074 L134.04721,57.0074074 L134.04721,57.0074074 Z M199.869436,88.0098765 L246.387412,57.0074074 L246.387412,119.016049 L199.869436,88.0098765 L199.869436,88.0098765 L199.869436,88.0098765 Z M15.94053,47.0061728 L62.467142,16.0061728 L62.467142,78.0111111 L15.94053,47.0061728 L15.94053,47.0061728 L15.94053,47.0061728 Z M72.527017,16.0061728 L119.04746,47.0061728 L72.527017,78.0111111 L72.527017,16.0061728 L72.527017,16.0061728 L72.527017,16.0061728 Z M138.343075,47.0061728 L184.867219,16.0061728 L184.867219,78.0111111 L138.343075,47.0061728 L138.343075,47.0061728 L138.343075,47.0061728 Z M195.578506,16.0061728 L242.098949,47.0061728 L195.578506,78.0111111 L195.578506,16.0061728 L195.578506,16.0061728 L195.578506,16.0061728 Z M190.150072,0.74691358 C189.920598,0.774074074 189.691123,0.811111111 189.457947,0.877777778 C189.22107,0.938271605 188.992829,1.0308642 188.765822,1.1308642 C188.623942,1.19259259 188.469725,1.21728395 188.332781,1.29259259 C188.257523,1.3345679 188.202005,1.3962963 188.127981,1.44197531 C188.05519,1.48765432 187.971296,1.50617284 187.898506,1.55679012 L129.334342,40.5790123 L70.784983,1.55679012 C70.709725,1.50617284 70.632,1.48765432 70.551807,1.44197531 C70.477783,1.3962963 70.418564,1.3345679 70.34454,1.29259259 C70.201427,1.21728395 70.044742,1.18888889 69.904096,1.12839506 C69.673388,1.0308642 69.456251,0.938271605 69.223075,0.877777778 C68.981263,0.811111111 68.757957,0.779012346 68.523547,0.74691358 C68.280501,0.713580247 68.053494,0.687654321 67.815383,0.687654321 C67.574805,0.687654321 67.351499,0.713580247 67.11092,0.74691358 C66.867875,0.774074074 66.643335,0.811111111 66.41386,0.877777778 C66.175749,0.938271605 65.954911,1.0308642 65.731605,1.1308642 C65.58479,1.19259259 65.434275,1.21728395 65.293629,1.29259259 C65.220839,1.3345679 65.162853,1.3962963 65.088829,1.44197531 C65.013571,1.48765432 64.922275,1.50617284 64.849484,1.55679012 L3.324357,42.5580247 C3.175075,42.6617284 3.05787,42.7950617 2.917224,42.9111111 C2.766708,43.0358025 2.616193,43.1493827 2.482949,43.2864198 C2.279383,43.4864198 2.118998,43.7111111 1.958612,43.9432099 C1.85868,44.0839506 1.743942,44.2160494 1.657581,44.3691358 C1.507065,44.637037 1.397263,44.9320988 1.29733,45.2185185 C1.236877,45.3567901 1.166554,45.4864198 1.129542,45.6333333 C1.00987,46.0753086 0.943248,46.5358025 0.943248,47.0061728 L0.982728,128.983951 C0.982728,132.250617 3.638959,134.902469 6.89972,134.902469 C7.981706,134.902469 8.99707,134.609877 9.863152,134.107407 L64.849484,96.9604938 C64.922275,96.9123457 65.013571,96.8925926 65.088829,96.8481481 C65.162853,96.8024691 65.220839,96.7382716 65.293629,96.6987654 C65.434275,96.6234568 65.58479,96.5950617 65.731605,96.5345679 C65.954911,96.4395062 66.175749,96.345679 66.41386,96.2790123 C66.643335,96.2160494 66.867875,96.1839506 67.11092,96.1518519 C67.351499,96.1234568 67.574805,96.0888889 67.815383,96.0888889 C68.053494,96.0888889 68.280501,96.1234568 68.523547,96.1518519 C68.757957,96.1839506 68.981263,96.2160494 69.223075,96.2790123 C69.456251,96.345679 69.673388,96.4395062 69.904096,96.5308642 C70.044742,96.5950617 70.201427,96.6234568 70.34454,96.6987654 C70.418564,96.7382716 70.477783,96.8024691 70.551807,96.8481481 C70.632,96.8938272 70.709725,96.9123457 70.784983,96.9604938 L126.365976,133.461728 C126.437533,133.504938 126.516492,133.519753 126.590516,133.565432 C126.673176,133.611111 126.731161,133.683951 126.815055,133.72716 C127.027258,133.844444 127.2592,133.904938 127.480039,133.98642 C127.626853,134.041975 127.762564,134.119753 127.91308,134.155556 C128.380665,134.283951 128.863055,134.359259 129.334342,134.359259 C129.821667,134.359259 130.295422,134.276543 130.764241,134.155556 C130.907354,134.116049 131.044299,134.041975 131.187412,133.988889 C131.414419,133.907407 131.645128,133.844444 131.862265,133.72716 C131.942458,133.683951 132.005378,133.611111 132.086805,133.562963 C132.153427,133.519753 132.236087,133.504938 132.307643,133.461728 L187.934284,96.9604938 C188.01201,96.9123457 188.095904,96.8925926 188.171161,96.8481481 C188.245186,96.8024691 188.297002,96.7382716 188.373494,96.6987654 C188.512906,96.6234568 188.662188,96.5950617 188.810236,96.5345679 C189.033542,96.4395062 189.265484,96.345679 189.501128,96.2790123 C189.73307,96.2160494 189.956376,96.1839506 190.190786,96.1518519 C190.426429,96.1234568 190.660839,96.0888889 190.901417,96.0888889 C191.141995,96.0888889 191.373937,96.1234568 191.607113,96.1518519 C191.840289,96.1839506 192.074699,96.2160494 192.305407,96.2790123 C192.539817,96.345679 192.76559,96.4395062 192.99013,96.5308642 C193.136945,96.5950617 193.286227,96.6234568 193.426872,96.6987654 C193.495961,96.7382716 193.546545,96.8024691 193.631672,96.8481481 C193.708164,96.8938272 193.794525,96.9123457 193.867316,96.9604938 L248.69573,134.080247 C249.572916,134.6 250.606786,134.902469 251.710978,134.902469 C254.977908,134.902469 257.63414,132.250617 257.63414,128.983951 L257.737773,47.0061728 C257.737773,46.5358025 257.667451,46.0753086 257.546545,45.6333333 C257.510766,45.4864198 257.436742,45.3567901 257.382458,45.2148148 C257.280058,44.9320988 257.173957,44.637037 257.023441,44.3691358 C256.929677,44.2160494 256.819875,44.0851852 256.717475,43.9432099 C256.549687,43.7111111 256.393002,43.4864198 256.19067,43.2864198 C256.064829,43.1493827 255.910612,43.0358025 255.763798,42.9111111 C255.619451,42.7950617 255.50348,42.6617284 255.349263,42.5580247 L193.82907,1.55679012 C193.753812,1.50617284 193.664983,1.48765432 193.590959,1.44197531 C193.513234,1.3962963 193.457716,1.3345679 193.381224,1.29259259 C193.247981,1.21728395 193.093764,1.18888889 192.949417,1.12839506 C192.72241,1.0308642 192.499104,0.938271605 192.259759,0.877777778 C192.026583,0.811111111 191.792173,0.779012346 191.568867,0.74691358 C191.33199,0.713580247 191.096347,0.687654321 190.864405,0.687654321 C190.613957,0.687654321 190.390651,0.713580247 190.150072,0.74691358 L190.150072,0.74691358 L190.150072,0.74691358 L190.150072,0.74691358 Z"></path>
        </g>
    </g>
</svg>